<svg xmlns="http://www.w3.org/2000/svg" viewBox="0 0 246.56 246.77"><defs><style>.cls-1{fill:#07c8cd;stroke-width:0.5px;}.cls-1,.cls-3{stroke:#07c8cd;}.cls-1,.cls-2,.cls-3{stroke-miterlimit:10;}.cls-2,.cls-3{fill:none;stroke-linecap:round;}.cls-2{stroke:#4beaea;}</style></defs><title>trust_1</title><g id="Layer_2" data-name="Layer 2"><g id="Layer_1-2" data-name="Layer 1"><path class="cls-1" d="M244.08,49.83,195.25,1a.35.35,0,0,0-.47,0c-.3.24-1.15,1-2.46,2.18-4.55,4.11-14.47,13.23-23.44,21.39-4.49,4.08-8.74,7.92-12,10.78-1.61,1.43-3,2.61-4,3.45-.5.42-.91.76-1.22,1l-.37.28-.12.07,0,0h0a15.06,15.06,0,0,1-4.78.64h0a69.93,69.93,0,0,0-8.15-4.29c-4.14-1.79-6.74-3.81-9.79-5.42s-6.53-2.76-12.29-2.76a74.24,74.24,0,0,0-11.73,1.11h0a2.76,2.76,0,0,1-.85-.28,80.61,80.61,0,0,1-9-5.53C88.51,19.55,80.79,14,74.4,9.37S62.93.93,62.17.33a.35.35,0,0,0-.47,0L12.87,49.19a.35.35,0,0,0,0,.47c.23.29,1,1.13,2.06,2.39,3.86,4.4,12.33,14,19.91,22.68,3.79,4.36,7.35,8.52,10,11.72,1.32,1.6,2.41,3,3.19,4,.39.51.69.94.91,1.27a2.89,2.89,0,0,1,.34.61c.66,2.91,1.44,6.71,2.43,10.15s2.15,6.49,3.7,8.08h0s2.94,4,6.91,8.94a7.23,7.23,0,0,0-3.36,1.88l-2.57,2.57a4.42,4.42,0,0,0-1.47,3.17,6.16,6.16,0,0,0,1.23,3.37A23.59,23.59,0,0,0,59,133.82l4.56,4.56a23.58,23.58,0,0,0,3.35,2.89,6.16,6.16,0,0,0,3.37,1.23,3.8,3.8,0,0,0,1.18-.19,7.68,7.68,0,0,0-1.11,4,9.32,9.32,0,0,0,2.79,6.54l4.56,4.56a9.32,9.32,0,0,0,6.54,2.79,7.9,7.9,0,0,0,2.8-.51,7.58,7.58,0,0,0-1.54,4.65,9.32,9.32,0,0,0,2.79,6.54l4.56,4.56a9.32,9.32,0,0,0,6.54,2.79,7.48,7.48,0,0,0,5.35-2.14h0a3.79,3.79,0,0,0-.08.78,6.16,6.16,0,0,0,1.23,3.37,23.57,23.57,0,0,0,2.89,3.35l2.56,2.56,0,0c1.06.8,2.15,1.7,3.3,2.41a7,7,0,0,0,3.63,1.23,4.87,4.87,0,0,0,2.87-1c2.21-1.57,4.87-3.68,7.79-6.13a9.48,9.48,0,0,0,3.42.62,11.39,11.39,0,0,0,6.69-2.16l0,0,2.56-2.55a5.28,5.28,0,0,0,1.81-3.85,11,11,0,0,0-1-3.82h0l1.69,1.7a8.66,8.66,0,0,0,5.87,2.94,6.33,6.33,0,0,0,4.51-2.09l4.56-4.56a9.32,9.32,0,0,0,2.79-6.54,7.58,7.58,0,0,0-1.54-4.65,7.9,7.9,0,0,0,2.8.51,9.32,9.32,0,0,0,6.54-2.79l3.06-3.06a9.32,9.32,0,0,0,2.79-6.54,7.48,7.48,0,0,0-2.14-5.35l-.13-.13.06-.07a11.26,11.26,0,0,0,3.7.89,5.22,5.22,0,0,0,3.8-1.79l4.56-4.56a9.32,9.32,0,0,0,2.79-6.54,7.48,7.48,0,0,0-2.14-5.35l-.86-.86a28.17,28.17,0,0,1,1.57-4.34c1.19-2.79,2.8-6.17,4.11-9.31.66-1.57,1.24-3.08,1.66-4.44a12.68,12.68,0,0,0,.68-3.53,4.18,4.18,0,0,0,0-.64,1.41,1.41,0,0,1,.2-.39,39.94,39.94,0,0,1,4-4.58c6.12-6.41,17.77-17.52,27.83-27.33,4.73-4.61,9.27-8.68,12.71-11.71l4.24-3.7L243.45,51a7.13,7.13,0,0,0,.66-.65A.35.35,0,0,0,244.08,49.83ZM67.29,140.68a22.92,22.92,0,0,1-3.24-2.8l-4.56-4.56a22.92,22.92,0,0,1-2.8-3.24,5.48,5.48,0,0,1-1.11-3,3.71,3.71,0,0,1,1.26-2.67l2.57-2.57A6.59,6.59,0,0,1,62.95,120h0a7.4,7.4,0,0,1,1.31-.12,8.62,8.62,0,0,1,6,2.58l4.56,4.56a8.59,8.59,0,0,1,2.57,6,7.49,7.49,0,0,1-.11,1.23,7,7,0,0,1-.35,1.32l-.05.14h0a6.57,6.57,0,0,1-1,1.68,6.24,6.24,0,0,1-.44.49l-.88.88-.5.5-1.19,1.19a3.71,3.71,0,0,1-2.67,1.26A5.48,5.48,0,0,1,67.29,140.68Zm10.9,16.25-4.56-4.56a8.62,8.62,0,0,1-2.58-6A6.77,6.77,0,0,1,73,141.49l.46-.46,1.19-1.19h0a6.34,6.34,0,0,1,.78-.65,6.42,6.42,0,0,1,1-.57,6.7,6.7,0,0,1,.82-.34,7.24,7.24,0,0,1,1.78-.34h0l.51,0a7.87,7.87,0,0,1,.8,0,8.46,8.46,0,0,1,3.14,1l.15.09a8.88,8.88,0,0,1,1,.62,9,9,0,0,1,1,.86L90.08,145a8.6,8.6,0,0,1,2.57,6v0a7.09,7.09,0,0,1-.75,3.21,6.39,6.39,0,0,1-1.17,1.61l-1.65,1.65a6.77,6.77,0,0,1-4.85,1.93A8.61,8.61,0,0,1,78.19,156.93Zm26,18.69a6.77,6.77,0,0,1-4.85,1.94,8.61,8.61,0,0,1-6-2.58l-4.56-4.56a8.62,8.62,0,0,1-2.58-6,6.77,6.77,0,0,1,1.94-4.85l1.44-1.44,1.65-1.65.5-.5,0,0,0,0A6.64,6.64,0,0,1,95.72,154h0l.25,0c.22,0,.45,0,.67,0a8.6,8.6,0,0,1,6,2.58l4.56,4.56a8.61,8.61,0,0,1,2.57,6v.07a6.79,6.79,0,0,1-1.78,4.69l-.14.16-1.41,1.41-.35.35Zm16.53,12.66a4.16,4.16,0,0,1-2.46.84A6.36,6.36,0,0,1,115,188c-1.08-.67-2.16-1.54-3.22-2.35l-2.54-2.54a22.92,22.92,0,0,1-2.8-3.24,5.48,5.48,0,0,1-1.11-3,3.71,3.71,0,0,1,1.26-2.67l.35-.35,1.41-1.41c.11-.11.2-.22.3-.33l.1-.07a6.72,6.72,0,0,1,4.48-1.92h.37a8.61,8.61,0,0,1,6,2.58l2.54,2.54a20.54,20.54,0,0,1,3,5v0a.34.34,0,0,0,.1.14h0c.68.52,1.32,1,1.93,1.42a7.32,7.32,0,0,0,1,.57C125.44,184.75,122.89,186.77,120.77,188.28Zm66.76-60a8.62,8.62,0,0,1-2.58,6l-4.56,4.56a4.5,4.5,0,0,1-3.3,1.59,11.48,11.48,0,0,1-3.69-.93,6.68,6.68,0,0,1-.93-.43A6,6,0,0,1,171,138l-30-32a.35.35,0,0,0-.52.49l30,32h0l2.1,2.1h0l.36.36a6.77,6.77,0,0,1,1.94,4.85,8.62,8.62,0,0,1-2.58,6l-3.06,3.06a8.62,8.62,0,0,1-6,2.58,6.77,6.77,0,0,1-4.84-1.93l-33.5-36.51a.35.35,0,1,0-.52.48l33.5,36.51h0l1.44,1.44a6.77,6.77,0,0,1,1.94,4.85,8.62,8.62,0,0,1-2.58,6L154.1,173a5.62,5.62,0,0,1-4,1.88c-1.83,0-3.69-1.06-5.37-2.74l-1.94-1.94h0l-1-1-1-1-25.31-27.74a.35.35,0,1,0-.52.48L140.3,168.7h0a6.46,6.46,0,0,1,1.45,2.25h0a11.08,11.08,0,0,1,1,3.79,4.57,4.57,0,0,1-1.6,3.34l-2.53,2.53a10.7,10.7,0,0,1-6.25,2A8.7,8.7,0,0,1,129,182h0l-.1,0a6.89,6.89,0,0,1-1.25-.7c-.57-.41-1.19-.86-1.83-1.35a21.58,21.58,0,0,0-3.09-5.09l0,0-2.56-2.56a9.32,9.32,0,0,0-6.54-2.79h-.41a7.67,7.67,0,0,0-3.42,1,7.84,7.84,0,0,0,.72-3.3h0V167h0a9.09,9.09,0,0,0-1.1-4.22,9.67,9.67,0,0,0-1.68-2.25L103.18,156a9.31,9.31,0,0,0-6.54-2.78c-.19,0-.38,0-.57,0l-.43,0h0a7.67,7.67,0,0,0-2.33.66c-.21.1-.41.21-.61.33a7.86,7.86,0,0,0,.67-3.17h0v0a9.31,9.31,0,0,0-2.78-6.54L86,140a9.31,9.31,0,0,0-6.54-2.78l-.56,0h0a7.85,7.85,0,0,0-2.28.5,7.34,7.34,0,0,0,.94-1.67h0a7.92,7.92,0,0,0,.56-3,9.3,9.3,0,0,0-2.78-6.53L70.8,122a9.32,9.32,0,0,0-6.54-2.79,8.16,8.16,0,0,0-1.22.1c-2-2.52-3.78-4.8-5-6.46l-1.52-2-.55-.73,0,0c-1.38-1.37-2.59-4.41-3.56-7.82s-1.75-7.19-2.42-10.11a1.75,1.75,0,0,0-.19-.43,29.64,29.64,0,0,0-2.25-3.09C43.55,83.66,35.4,74.28,28,65.9c-3.68-4.19-7.16-8.13-9.81-11.14L15,51,13.6,49.46,62,1.08c.9.69,3.43,2.58,6.86,5.11,5.74,4.23,14,10.2,21.07,15.12,3.55,2.46,6.82,4.66,9.36,6.24,1.27.79,2.36,1.43,3.22,1.88a11.84,11.84,0,0,0,1.11.52,2.38,2.38,0,0,0,.81.2h.13A73.57,73.57,0,0,1,116.16,29c5.68,0,9,1.11,12,2.68s5.62,3.62,9.84,5.44a65.71,65.71,0,0,1,6.84,3.52c-1.52-.21-2.94-.67-4-.91a32.86,32.86,0,0,0-9.43-1.48,27,27,0,0,0-7.35,1,30.74,30.74,0,0,0-6.6,2.39c-3.68,1.79-7,4-11.18,5.83-2.75,1.2-5.29,3.75-7.58,6.89-6.79,9.33-11.42,24-11.52,24.25h0c0,.08-.13.33-.27.71l0,.09-.13.38a15.46,15.46,0,0,0-.86,4.51,6.25,6.25,0,0,0,.11,1.18,3.66,3.66,0,0,0,.47,1.26.87.87,0,0,0,.29.27,5,5,0,0,0,1.71.49,17.82,17.82,0,0,0,2.64.18,16.7,16.7,0,0,0,4.11-.47,5.59,5.59,0,0,0,3.11-1.78A113.31,113.31,0,0,1,110,72.36c3.19-3.17,5.6-5.56,6.91-8.39l0,0a.39.39,0,0,1,.15,0,3.66,3.66,0,0,1,1.18.33c1.9.77,5.24,2.75,9.37,4.53a49.24,49.24,0,0,0,5.32,2,.35.35,0,0,0,.07.1l51.6,51.6h0l1,1A6.77,6.77,0,0,1,187.53,128.28ZM224.71,67c-7.2,7-15.23,14.73-21.46,20.89-3.11,3.08-5.78,5.78-7.67,7.82-.95,1-1.7,1.88-2.22,2.54a8.78,8.78,0,0,0-.61.86,2.53,2.53,0,0,0-.18.34.91.91,0,0,0-.08.34v.09h0a3.49,3.49,0,0,1,0,.55,15.64,15.64,0,0,1-1.12,4.7c-1,2.85-2.59,6.24-4,9.34a55.8,55.8,0,0,0-2.81,7L134.28,71.12a30,30,0,0,0,7.57,1,22.07,22.07,0,0,0,15-5.77.35.35,0,0,0-.47-.53h0a21.36,21.36,0,0,1-14.58,5.59c-5.74,0-11.26-2-15.67-4.09-2.2-1-4.13-2.05-5.67-2.83-.77-.39-1.45-.71-2-.95a4.2,4.2,0,0,0-1.45-.38,1.08,1.08,0,0,0-.44.08.77.77,0,0,0-.28.23v0l-.05.07v0c-1.21,2.67-3.57,5-6.78,8.21A114,114,0,0,0,97.68,85.1,4.93,4.93,0,0,1,95,86.62a16,16,0,0,1-3.93.45,16.36,16.36,0,0,1-2.83-.23,5.53,5.53,0,0,1-.91-.23L87,86.49l-.06,0h0a2.33,2.33,0,0,1-.1-.21,3.29,3.29,0,0,1-.29-.93,5.58,5.58,0,0,1-.08-.92,13.64,13.64,0,0,1,.62-3.65c.12-.4.24-.75.34-1l.09-.26.14-.37.05-.13v0s.13-.41.37-1.13a117.86,117.86,0,0,1,6.41-15.25,55.66,55.66,0,0,1,5.49-8.8,17.9,17.9,0,0,1,6.43-5.53c4.19-1.81,7.92-4.12,11.84-6A37.41,37.41,0,0,1,124.16,40a28.65,28.65,0,0,1,6.52-.72,47.22,47.22,0,0,1,9.9,1.17,20.78,20.78,0,0,0,5.67,1h.18a15.66,15.66,0,0,0,5-.69,1.79,1.79,0,0,0,.35-.21c.52-.37,1.53-1.21,2.94-2.43,4.92-4.26,14.57-13,23.22-21L189.5,6.67l3.86-3.5L195,1.73l48.36,48.36-.37.34C240.73,52.48,233,58.91,224.71,67Z"/><path class="cls-2" d="M148.6,164.35l1.66-1.66c.52-.52,1.24-1.15,1.84-1.83a3.62,3.62,0,0,0,1.11-2.23,1.85,1.85,0,0,0,0-.23.35.35,0,1,0-.7.09v.14a3,3,0,0,1-.93,1.76c-.56.63-1.26,1.25-1.81,1.79l-1.66,1.66a4.63,4.63,0,0,1-2.21,1.24.35.35,0,1,0,.16.69Z"/><path class="cls-2" d="M130.16,175.7l1.66-1.66c.52-.52,1.24-1.15,1.84-1.83a3.62,3.62,0,0,0,1.11-2.23,1.85,1.85,0,0,0,0-.23.35.35,0,1,0-.7.09V170a3,3,0,0,1-.93,1.76c-.56.63-1.26,1.25-1.81,1.79l-1.66,1.66a4.63,4.63,0,0,1-2.21,1.24.35.35,0,1,0,.16.69Z"/><path class="cls-2" d="M161.65,150.18h0a5.34,5.34,0,0,0,2.55-1.43l1.66-1.66c.52-.52,1.24-1.15,1.84-1.83a3.62,3.62,0,0,0,1.11-2.23,1.85,1.85,0,0,0,0-.23.35.35,0,0,0-.7.09V143a3,3,0,0,1-.93,1.76c-.56.63-1.26,1.25-1.81,1.79l-1.66,1.66a4.63,4.63,0,0,1-2.21,1.24.35.35,0,1,0,.16.69Z"/><path class="cls-2" d="M180.46,125.48a.35.35,0,0,0-.31.4V126a3,3,0,0,1-.93,1.76c-.56.63-1.26,1.25-1.81,1.79l-1.66,1.66a4.63,4.63,0,0,1-2.21,1.24.35.35,0,1,0,.16.69h0a5.34,5.34,0,0,0,2.55-1.43l1.66-1.66c.52-.52,1.24-1.15,1.84-1.83a3.62,3.62,0,0,0,1.11-2.23,1.85,1.85,0,0,0,0-.23A.35.35,0,0,0,180.46,125.48Z"/><path class="cls-2" d="M190.45,96.85a1.55,1.55,0,0,1,.16-.31h0A19.43,19.43,0,0,1,193.56,93c6.11-6.4,15.76-15.51,25.82-25.32,4.72-4.61,9.26-8.67,12.7-11.7l4.23-3.7,1.3-1.15a7.29,7.29,0,0,0,.69-.68h0a.61.61,0,0,0,0-.8L195.43,6.82a.6.6,0,0,0-.8,0c-.31.25-1.16,1-2.47,2.19l.34.37c1.3-1.18,2.16-1.94,2.45-2.17l.06,0,.07,0L237.91,50l0,.07,0,.07.2.15-.19-.16a7,7,0,0,1-.63.62L236,51.92l-4.24,3.7c-3.45,3-8,7.1-12.72,11.71C209,77.13,199.33,86.25,193.2,92.66a20,20,0,0,0-3,3.62"/><line class="cls-2" x1="190.45" y1="96.85" x2="190.46" y2="96.8"/><path class="cls-2" d="M190.46,96.8"/><path class="cls-2" d="M190.19,96.27a2.42,2.42,0,0,0-.17.3l0,.11,0,.13v0a3.9,3.9,0,0,1,0,.6,12.47,12.47,0,0,1-.67,3.46l.48.15h0a12.91,12.91,0,0,0,.7-3.61,4.39,4.39,0,0,0-.05-.68"/><line class="cls-2" x1="55.98" y1="92.31" x2="55.99" y2="92.37"/><path class="cls-2" d="M56.1,91.56c-.22-.34-.53-.77-.92-1.28-.78-1-1.87-2.39-3.19-4-2.65-3.2-6.21-7.36-10-11.73-7.57-8.73-16.05-18.28-19.91-22.68-1.1-1.26-1.83-2.09-2-2.38l0-.07,0-.07L57.88,10.53l.07,0,.06,0,.31-.39h0a.6.6,0,0,0-.8,0L19.69,49a.6.6,0,0,0,0,.8c.24.31,1,1.13,2.07,2.4,3.86,4.4,12.34,14,19.91,22.68C45.4,79.25,49,83.4,51.6,86.6c1.32,1.6,2.41,3,3.18,4,.38.51.69.94.9,1.26h0c.1.15.18.29.23.39l.06.12v0"/><path class="cls-2" d="M56,92.31v0c.66,2.91,1.44,6.71,2.43,10.17s1.15,4.52,2.76,6.19l.36-.35c-1.49-1.52-1.66-2.57-2.64-6s-1.76-7.22-2.42-10.14V92.2a3.68,3.68,0,0,0-.36-.64"/><line class="cls-3" x1="122.94" y1="212.14" x2="122.94" y2="217.02"/><line class="cls-2" x1="122.94" y1="221.89" x2="122.94" y2="226.77"/><line class="cls-3" x1="122.94" y1="231.64" x2="122.94" y2="236.52"/><line class="cls-2" x1="122.94" y1="241.39" x2="122.94" y2="246.27"/><line class="cls-3" x1="150.35" y1="207.91" x2="151.85" y2="212.55"/><line class="cls-2" x1="153.36" y1="217.18" x2="154.87" y2="221.82"/><line class="cls-3" x1="156.37" y1="226.46" x2="157.88" y2="231.09"/><line class="cls-2" x1="159.39" y1="235.73" x2="160.89" y2="240.37"/><line class="cls-3" x1="175.11" y1="195.41" x2="177.98" y2="199.36"/><line class="cls-2" x1="180.84" y1="203.3" x2="183.71" y2="207.25"/><line class="cls-3" x1="186.57" y1="211.19" x2="189.44" y2="215.13"/><line class="cls-2" x1="192.3" y1="219.08" x2="195.17" y2="223.02"/><line class="cls-3" x1="194.8" y1="175.88" x2="198.74" y2="178.74"/><line class="cls-2" x1="202.69" y1="181.61" x2="206.63" y2="184.47"/><line class="cls-3" x1="210.58" y1="187.34" x2="214.52" y2="190.2"/><line class="cls-2" x1="218.46" y1="193.07" x2="222.41" y2="195.93"/><line class="cls-3" x1="207.49" y1="151.21" x2="212.12" y2="152.72"/><line class="cls-2" x1="216.76" y1="154.22" x2="221.4" y2="155.73"/><line class="cls-3" x1="226.03" y1="157.24" x2="230.67" y2="158.74"/><line class="cls-2" x1="235.31" y1="160.25" x2="239.94" y2="161.76"/><line class="cls-3" x1="211.93" y1="123.83" x2="216.81" y2="123.83"/><line class="cls-2" x1="221.68" y1="123.83" x2="226.56" y2="123.83"/><line class="cls-3" x1="231.43" y1="123.83" x2="236.31" y2="123.83"/><line class="cls-2" x1="241.18" y1="123.83" x2="246.06" y2="123.83"/><line class="cls-3" x1="34.63" y1="123.15" x2="29.75" y2="123.15"/><line class="cls-2" x1="24.88" y1="123.15" x2="20" y2="123.15"/><line class="cls-3" x1="15.13" y1="123.15" x2="10.25" y2="123.15"/><line class="cls-2" x1="5.38" y1="123.15" x2="0.5" y2="123.15"/><line class="cls-3" x1="38.86" y1="150.56" x2="34.22" y2="152.07"/><line class="cls-2" x1="29.59" y1="153.57" x2="24.95" y2="155.08"/><line class="cls-3" x1="20.31" y1="156.58" x2="15.68" y2="158.09"/><line class="cls-2" x1="11.04" y1="159.6" x2="6.4" y2="161.1"/><line class="cls-3" x1="51.35" y1="175.32" x2="47.41" y2="178.19"/><line class="cls-2" x1="43.47" y1="181.05" x2="39.52" y2="183.92"/><line class="cls-3" x1="35.58" y1="186.78" x2="31.64" y2="189.65"/><line class="cls-2" x1="27.69" y1="192.51" x2="23.75" y2="195.38"/><line class="cls-3" x1="70.89" y1="195.01" x2="68.03" y2="198.95"/><line class="cls-2" x1="65.16" y1="202.9" x2="62.3" y2="206.84"/><line class="cls-3" x1="59.43" y1="210.79" x2="56.56" y2="214.73"/><line class="cls-2" x1="53.7" y1="218.67" x2="50.83" y2="222.62"/><line class="cls-3" x1="95.56" y1="207.7" x2="94.05" y2="212.34"/><line class="cls-2" x1="92.54" y1="216.97" x2="91.04" y2="221.61"/><line class="cls-3" x1="89.53" y1="226.24" x2="88.02" y2="230.88"/><line class="cls-2" x1="86.52" y1="235.52" x2="85.01" y2="240.15"/><path class="cls-2" d="M71,138.25a5.48,5.48,0,0,1-3-1.11,22.92,22.92,0,0,1-3.24-2.8l-1-1a22.92,22.92,0,0,1-2.8-3.24,5.48,5.48,0,0,1-1.11-3,3.71,3.71,0,0,1,1.26-2.67l.45-.45"/><path class="cls-2" d="M84.22,156.69c-2.11,0-2.91-.87-4.62-2.58l-1.73-1.73c-1.71-1.71-3.29-3.22-3.29-5.33"/><path class="cls-2" d="M99.07,174.37c-2.11,0-2.91-.87-4.62-2.58l-1.73-1.73c-1.71-1.71-3.29-3.22-3.29-5.33"/><path class="cls-2" d="M118.17,186.39c-2.11,0-2.91-.87-4.62-2.58l-1.73-1.73c-1.71-1.71-3.29-3.22-3.29-5.33"/></g></g></svg>